<svg height="27" viewBox="0 0 27 27" width="27" xmlns="http://www.w3.org/2000/svg"><g fill="#fff"><path d="m0 13.175c0-7.27635193 5.89864807-13.175 13.175-13.175 7.2763519 0 13.175 5.89864807 13.175 13.175 0 7.2763519-5.8986481 13.175-13.175 13.175-7.27635193 0-13.175-5.8986481-13.175-13.175zm13.1756587-7.02666667c-1.9083454 0-2.1478401.00834426-2.897359.04245323-.74805502.03425536-1.25866479.15268521-1.70544832.32645064-.46215454.17947463-.85418808.41955489-1.24475771.81027093-.39086242.39056963-.63094267.78260312-.81100289 1.24461129-.17420459.44692995-.29278082.95768609-.32645063 1.70544828-.0335234.7495189-.04230682.9891601-.04230682 2.8975055s.00849063 2.1471082.04245323 2.8966271c.03440173.748055.15283159 1.2586648.32645064 1.7054483.17962101.4621546.4197013.8541881.8104173 1.2447577.39042326.3908624.78245675.6315283 1.24431854.8110029.44707633.1737654.95783247.2921953 1.70574106.3264507.749519.0341089.9888673.0424531 2.8970663.0424531 1.9084918 0 2.1472546-.0083442 2.8967735-.0424531.748055-.0342554 1.2592504-.1526853 1.7063267-.3264507.4620081-.1794746.8534561-.4201405 1.2438793-.8110029.3908624-.3905696.6309427-.7826031.8110029-1.2446113.1727407-.4469299.291317-.9576861.3264506-1.7054483.0336698-.7495189.0424533-.9884281.0424533-2.8967735s-.0087835-2.1478401-.0424533-2.8973591c-.0351336-.748055-.1537099-1.25866473-.3264506-1.70544831-.1800602-.46215454-.4201405-.85418803-.8110029-1.24475766-.3908624-.39086242-.7817248-.63094271-1.2443185-.81027093-.4479546-.17376543-.9588572-.29219528-1.7069122-.32645064-.7495189-.03410897-.9881353-.04245323-2.8970663-.04245323z"/><path d="m12.5453016 7.41461043c.187087-.0002928.3958397 0 .6303572 0 1.8761395 0 2.0985065.00673396 2.8393884.04040373.6851071.03132755 1.0569388.14580487 1.3046314.24198338.3279145.12735965.5617.27960569.8074895.52554157.2459359.24593588.3981819.48016054.5258344.8080751.0961785.24739979.2108022.61923145.2419833 1.30433859.0336698.7407355.0409894.9632489.0409894 2.8385101s-.0073196 2.0977746-.0409894 2.8385101c-.0313275.6851072-.1458048 1.0569388-.2419833 1.3043386-.1273597.3279145-.2798985.5614072-.5258344.8071967-.2459359.2459359-.4794286.398182-.8074895.5255416-.2473998.0966177-.6195243.2108022-1.3046314.2421298-.7407355.0336698-.9632489.0409893-2.8393884.0409893-1.876286 0-2.098653-.0073195-2.8393885-.0409893-.68510714-.0316203-1.0569388-.1460976-1.30477776-.2422762-.32791455-.1273596-.56213918-.2796056-.8080751-.5255415-.24593588-.2459359-.39818192-.479575-.52583436-.807636-.09617851-.2473998-.2108022-.6192314-.24198334-1.3043385-.03366981-.7407355-.04040377-.963249-.04040377-2.8396813s.00673396-2.0977746.04040377-2.8385101c.03132756-.68510715.14580483-1.05693881.24198334-1.30463135.12735965-.32791455.27989848-.56213922.52583436-.8080751.24593592-.24593593.48016055-.39818192.8080751-.52583437.24769259-.09661767.61967062-.21080219 1.30477776-.24227612.6482167-.0292781.8994227-.03806153 2.2090313-.03952544zm4.3811723 1.16673158c-.4655215 0-.8432088.37724812-.8432088.84291599 0 .46552154.3776873.8432088.8432088.8432088.4655216 0 .8432088-.37768726.8432088-.8432088 0-.4655215-.3776872-.84320879-.8432088-.84320879zm-3.7508151.98520748c-1.9928127 0-3.60852372 1.61571101-3.60852372 3.60852371s1.61571102 3.6077917 3.60852372 3.6077917 3.6079381-1.614979 3.6079381-3.6077917-1.6152718-3.60852371-3.6080845-3.60852371z"/><path d="m13.1756588 10.8328266c1.2935056 0 2.3422466 1.0485945 2.3422466 2.3422466 0 1.2935057-1.048741 2.3422466-2.3422466 2.3422466-1.2936521 0-2.3422467-1.0487409-2.3422467-2.3422466 0-1.2936521 1.0485946-2.3422466 2.3422467-2.3422466z"/></g></svg>