<svg height="27" viewBox="0 0 27 27" width="27" xmlns="http://www.w3.org/2000/svg"><path d="m0 13.175c0-7.27635193 5.89864807-13.175 13.175-13.175 7.2763519 0 13.175 5.89864807 13.175 13.175 0 7.2763519-5.8986481 13.175-13.175 13.175-7.27635193 0-13.175-5.8986481-13.175-13.175zm9.31063087-2.2628895h-2.98574314v8.9709187h2.98574314zm.19664856-2.77506709c-.01937867-.87959286-.64837983-1.54954341-1.66978374-1.54954341s-1.68916236.66995055-1.68916236 1.54954341c0 .86137351.64802204 1.55061516 1.65040507 1.55061516h.01908052c1.04108068 0 1.68946051-.68924165 1.68946051-1.55061516zm10.57108327 6.60233519c0-2.7554783-1.4729562-4.0379227-3.4377129-4.0379227-1.5852331 0-2.2949687.8707214-2.6912472 1.4815481v-1.2706554h-2.9861009c.0393536.8417847 0 8.9709187 0 8.9709187h2.9861009v-5.0101011c0-.2681112.0193787-.5355674.0983243-.7275263.2157887-.535627.707112-1.0901879 1.5319866-1.0901879 1.0808517 0 1.5129061.8226126 1.5129061 2.0281306v4.7994466h2.9856239z" fill="#fff"/></svg>