<svg height="27" viewBox="0 0 27 27" width="27" xmlns="http://www.w3.org/2000/svg"><path d="m13.175 26.35c-7.27635158 0-13.175-5.8986484-13.175-13.175 0-7.27635158 5.89864842-13.175 13.175-13.175 7.2763516 0 13.175 5.89864842 13.175 13.175 0 7.2763516-5.8986484 13.175-13.175 13.175zm.1835717-13.9144337c1.078769 0 6.324-2.9495663 6.324-2.9495663l.008432-.527c0-.581808-.472192-1.054-1.055581-1.054h-10.55370203c-.582862 0-1.055054.472192-1.055054 1.054v.469557s5.30267403 3.0070093 6.33190503 3.0070093zm0 1.44925c-1.029231 0-6.32400003-2.8178163-6.32347303-2.8178163l-.008432 6.324c0 .581808.472719 1.054 1.055054 1.054h10.55370203c.583389 0 1.055581-.472192 1.055581-1.054l-.008432-6.324s-5.195693 2.8178163-6.324 2.8178163z" fill="#fff"/></svg>