<?xml version="1.0" encoding="utf-8"?>
<!-- Generator: Adobe Illustrator 24.0.1, SVG Export Plug-In . SVG Version: 6.00 Build 0)  -->
<svg version="1.1" id="Light" xmlns="http://www.w3.org/2000/svg" xmlns:xlink="http://www.w3.org/1999/xlink" x="0px" y="0px"
	 viewBox="0 0 24 24" style="enable-background:new 0 0 24 24;" xml:space="preserve">
<style type="text/css">
	.st0{fill:none;stroke:#E51659;stroke-width:0.75;stroke-linecap:round;stroke-linejoin:round;}
</style>
<title>multiple-neutral-2</title>
<path class="st0" d="M17,22v-1.5c0-4-2.6-4.6-5.1-5.6c-0.8-0.3-0.7-2.7-0.3-3.2c0.9-1,1.6-2.3,1.6-5.2c0-3-1.8-4.5-3.9-4.5
	S5.4,3.6,5.4,6.5c0,2.9,0.7,4.2,1.6,5.2c0.4,0.4,0.5,2.8-0.3,3.2c-2.5,1-5.1,1.6-5.1,5.6V22H17z"/>
<path class="st0" d="M19.3,22h3.2v-0.9c0-3-2-3.5-3.9-4.3c-0.6-0.3-0.5-2.1-0.2-2.4c0.9-1.1,1.3-2.5,1.2-4c0.1-1.7-1-3.3-2.6-3.5
	c-0.1,0-0.2,0-0.4,0c-0.5,0-1,0.1-1.4,0.4"/>
</svg>
