<svg id="Ebene_1" data-name="Ebene 1" xmlns="http://www.w3.org/2000/svg" width="146.25mm" height="25.46mm" viewBox="0 0 414.58 72.17"><defs><style>.cls-1{fill:#111110;}</style></defs><title>Cheyenne-GraphicDesign</title><path class="cls-1" d="M43.08,48a15.91,15.91,0,0,1-13.53,6.5c-5.66-.08-11-2.14-14.22-6.5-3.51-4.46-4.37-10.2-4.45-15.85s1-11.56,4.45-15.85c3.17-4.37,8.56-6.59,14.22-6.51s10.19,2.14,13.53,6.51a20.74,20.74,0,0,1,3.08,6.34l10.37-1.46a27,27,0,0,0-8.91-14.9C42.57,1.8,36.23,0,28.86,0,20,0,12.33,3.25,6.93,9.93,1.88,16,0,23.73,0,32.12c0,8,2.05,15.67,7,22.1s12.85,10,21.84,10c7.2,0,13.62-1.63,18.85-6.17A26.67,26.67,0,0,0,56.1,44.71L46,42.23A20,20,0,0,1,43.08,48Z"/><path class="cls-1" d="M102,20.13c-4.28-4.11-9.59-5-14.9-4.63a16.67,16.67,0,0,0-11.83,5.23,11.55,11.55,0,0,0-.94,1.11V1.28H65.18V63H75.54V42.83a56.78,56.78,0,0,1,.52-9.17,10.67,10.67,0,0,1,3.68-6.42,9.67,9.67,0,0,1,6.08-2.14,10.31,10.31,0,0,1,7.71,2.65c2.91,2.74,3.68,7.88,3.68,13.28V63h10.45V40.6C107.66,33.15,107.41,25,102,20.13Z"/><path class="cls-1" d="M139.27,15.42c-14,0-23,10-23,24.92,0,13.48,8.72,23.32,22.32,23.87V54.55c-6.66-.3-10.45-4.78-11.19-11.81h33.41C161.88,26.73,154.26,15.42,139.27,15.42ZM127.62,34.61c1.11-6.09,4.62-10.2,11.65-10.2,7.28,0,10.19,3.69,11,10.2Z"/><path class="cls-1" d="M200.68,16.7l-12.51,33-12.93-33H164.53l18.68,45.91-.09.34-3.39,9.22h9.91L211,16.7Z"/><path class="cls-1" d="M236.14,15.42c-14,0-23,10-23,24.92,0,13.48,8.72,23.32,22.32,23.87V54.55c-6.66-.3-10.44-4.78-11.19-11.81h33.41C258.75,26.73,251.13,15.42,236.14,15.42ZM224.49,34.61c1.11-6.09,4.63-10.2,11.65-10.2,7.28,0,10.19,3.69,11.05,10.2Z"/><path class="cls-1" d="M302.86,20.13c-4.28-4.11-9.68-5-14.9-4.63-4.2.17-8.82,1.71-11.82,5.23-.35.42-.69.85-1,1.2V16.7H266V63h10.36V42.74a47.06,47.06,0,0,1,.52-9.08,10.59,10.59,0,0,1,3.6-6.42,10,10,0,0,1,6.08-2.14,10.19,10.19,0,0,1,7.71,2.65c3,2.74,3.68,7.88,3.68,13.28V63h10.45V40.6C308.43,33.15,308.26,25,302.86,20.13Z"/><path class="cls-1" d="M356.48,20.13c-4.28-4.11-9.68-5-14.91-4.63-4.19.17-8.82,1.71-11.81,5.23-.35.42-.69.85-1,1.2V16.7h-9.08V63H330V42.74a47.06,47.06,0,0,1,.52-9.08,10.63,10.63,0,0,1,3.59-6.42,11.12,11.12,0,0,1,13.79.51c3,2.74,3.69,7.88,3.69,13.28V63h10.45V40.6C362.05,33.15,361.87,25,356.48,20.13Z"/><path class="cls-1" d="M393,15.42c-14,0-23,10-23,24.92,0,13.48,8.72,23.32,22.32,23.87V54.55c-6.66-.3-10.45-4.78-11.19-11.81h33.41C415.58,26.73,408,15.42,393,15.42ZM381.32,34.61c1.11-6.09,4.62-10.2,11.65-10.2,7.28,0,10.19,3.69,11,10.2Z"/></svg>