<svg height="30" viewBox="0 0 171 30" width="171" xmlns="http://www.w3.org/2000/svg"><g fill="#fff"><path d="m17.678361 19.6973381c-1.2886447 1.7611449-3.3719864 2.7620113-5.5521872 2.6673479-2.32264446-.0328289-4.51397333-.878173-5.83533643-2.6673479-1.44036785-1.830211-1.79327849-4.1856843-1.82610739-6.5042252-.0328289-2.3185408.41036121-4.74377556 1.82610739-6.50422515 1.30084504-1.7932785 3.51269197-2.70428039 5.83533643-2.67145149 2.3226445.0328289 4.1815807.87817299 5.5521872 2.67145149.5666628.78876258.994139 1.66869732 1.2639125 2.60169008l4.2554458-.59912737c-.5124199-2.38506678-1.7976608-4.53434739-3.6563184-6.11438205-2.0723241-1.83841823-4.6740142-2.57706841-7.6983763-2.57706841-3.63580037 0-6.78327086 1.33367394-8.99922141 4.07488683-2.07232411 2.49089255-2.84380319 5.66298472-2.84380319 9.10591527 0 3.2828897.84124048 6.4303602 2.87252848 9.0689828s5.27314157 4.1036121 8.96228882 4.1036121c2.9546008 0 5.5891197-.6688888 7.7353089-2.5319287 1.675888-1.4351427 2.8788673-3.3433169 3.4511378-5.4742185l-4.1446483-1.0176958c-.2683292.8490369-.6730366 1.6487499-1.1982547 2.3677841z"/><path d="m41.8568436 8.26057119c-1.756346-1.68658458-3.9353641-2.05180606-6.1143821-1.89997241-1.8410932.03286115-3.5911914.80657321-4.8545731 2.14618913-.1380222.14357848-.2668575.29571373-.3857396.45550095v-8.43702651h-3.754805v25.32749395h4.2513421v-8.2769856c-.0306047-1.2580418.040758-2.5164953.2133878-3.7630123.1729925-1.0301975.7086019-1.9646032 1.5101293-2.634519.7067621-.5694435 1.5873745-.8793959 2.4949962-.878173 1.159243-.0875964 2.3034539.3056798 3.1638849 1.0874572 1.1941511 1.1243897 1.5101293 3.2336464 1.5101293 5.4495969v9.0156358h4.2882746v-9.1920911c0-3.057191-.1025903-6.4016349-2.3226444-8.40009401z"/><path d="m57.1510059 6.32776988c-5.7450569 0-9.4383079 4.10361212-9.4383079 10.22620142 0 5.5316691 3.5783498 9.5696234 9.1592623 9.7953221v-3.9640893c-2.7330057-.1231084-4.2882747-1.9615266-4.591942-4.8463659h13.7101681c.4390865-6.569883-2.6878659-11.21106832-8.8391805-11.21106832zm-4.7807081 7.87483162c.4555009-2.4990998 1.8958688-4.1856843 4.7807081-4.1856843 2.9874296 0 4.1815808 1.5142328 4.5139733 4.1856843z"/><path d="m82.3512879 6.85303223-5.1336188 13.54191997-5.3059704-13.54191997h-4.3949686l7.6655474 18.83968317-.0369325.1395229-1.3911245 3.7835303h4.0666796l8.7653155-22.76273637z"/><path d="m96.9026965 6.32776988c-5.745057 0-9.4383079 4.10361212-9.4383079 10.22620142 0 5.5316691 3.5783498 9.5696234 9.1592622 9.7953221v-3.9640893c-2.7330056-.1231084-4.284171-1.9615266-4.5919419-4.8463659h13.7101681c.439086-6.569883-2.687866-11.21106832-8.8391805-11.21106832zm-4.7807082 7.87483162c.455501-2.4990998 1.8999725-4.1856843 4.7807082-4.1856843 2.9874296 0 4.1815805 1.5142328 4.5344915 4.1856843z"/><path d="m124.281996 8.26057119c-1.756346-1.68658458-3.972296-2.05180606-6.114382-1.89997241-1.723517.0697614-3.619385.70171767-4.850469 2.14618913-.143627.17235171-.283149.34880703-.410361.49243346v-2.14618914h-3.750702v18.99972407h4.251342v-8.3139181c-.049336-1.246003.022126-2.4938556.213388-3.7260798.161595-1.0265605.685708-1.9612281 1.477301-2.634519.711944-.5600774 1.5892-.8688484 2.494996-.878173 1.160004-.0935764 2.30653.3004956 3.163885 1.0874572 1.231083 1.1243897 1.510129 3.2336464 1.510129 5.4495969v9.0156358h4.288275v-9.1920911c.01231-3.057191-.057451-6.4016349-2.273402-8.40009401z"/><path d="m146.285565 8.26057119c-1.756346-1.68658458-3.972297-2.05180606-6.118486-1.89997241-1.719413.0697614-3.619386.70171767-4.846366 2.14618913-.143626.17235171-.283149.34880703-.410361.49243346v-2.14618914h-3.72608v18.99972407h4.234928v-8.3139181c-.049337-1.246003.022126-2.4938556.213388-3.7260798.161905-1.0255049.684265-1.9596409 1.473196-2.634519 1.706694-1.25062204 4.049228-1.1639874 5.658881.2092842 1.231084 1.1243897 1.514233 3.2336464 1.514233 5.4495969v9.0156358h4.288411v-9.1920911c.003968-3.057191-.069897-6.4016349-2.281744-8.40009401z"/><path d="m161.271956 6.32776988c-5.745057 0-9.438308 4.10361212-9.438308 10.22620142 0 5.5316691 3.57835 9.5696234 9.159262 9.7953221v-3.9640893c-2.733005-.1231084-4.288274-1.9615266-4.591942-4.8463659h13.710169c.426775-6.569883-2.683763-11.21106832-8.839181-11.21106832zm-4.793019 7.87483162c.455501-2.4990998 1.895869-4.1856843 4.780708-4.1856843 2.98743 0 4.181581 1.5142328 4.513974 4.1856843z"/></g></svg>