<svg height="27" viewBox="0 0 27 27" width="27" xmlns="http://www.w3.org/2000/svg"><g fill="#fff"><path d="m13.1987368.09878458c-7.26192937 0-13.15060994 5.98798476-13.15060994 13.37512242 0 5.9095773 3.76805 10.9232271 8.99318966 12.6918255.65722561.123813.89851322-.290152.89851322-.6434287 0-.3189457-.01219504-1.3725741-.017857-2.4902131-3.65851239.8091033-4.43050209-1.578117-4.43050209-1.578117-.5982103-1.5460008-1.46013842-1.9570865-1.46013842-1.9570865-1.19315413-.8301448.08993843-.8130901.08993843-.8130901 1.32054877.0941333 2.01588391 1.3783329 2.01588391 1.3783329 1.17290165 2.0447965 3.07641691 1.4536395 3.82684752 1.1118802.11803061-.8642543.45883841-1.4547469.83492481-1.7885325-2.9209302-.3382154-5.99146738-1.4850911-5.99146738-6.6101504 0-1.4602843.51371609-2.6534514 1.35495618-3.590133-.13654092-.33710793-.58666861-1.69727862.12739465-3.53963324 0 0 1.10430452-.3594784 3.61735413 1.37102372 1.04899132-.29635376 2.17398382-.44497361 3.29157232-.45006791 1.1175884.0050943 2.243452.15371415 3.2944033.45006791 2.5100008-1.73050212 3.612781-1.37102372 3.612781-1.37102372.7158053 1.84235462.2654599 3.20252531.128919 3.53963324.8432.9366816 1.3534318 2.1298487 1.3534318 3.590133 0 5.1372413-3.0764169 6.2683912-6.0047512 6.5995189.4716867.4150724.8919801 1.2290485.8919801 2.4769237 0 1.7894185-.0152438 3.2297686-.0152438 3.6705339 0 .3559346.2367145.7730004.9033042.6416568 5.2223086-1.7705918 8.9855677-6.7824697 8.9855677-12.6900536 0-7.38713766-5.8878095-13.37512242-13.1503921-13.37512242"/><path d="m5.02893017 19.3026404c-.02896321.0666685-.13175.0863812-.22539052.0407542-.09538261-.0436336-.14895369-.134223-.11803056-.2008915.02830991-.0684405.13131448-.0872671.22647934-.0418616.0956004.043855.15004257.1353304.11694174.2019989"/><path d="m5.56159213 19.9068654c-.06271735.0591378-.18532104.0316731-.26850865-.0617958-.08601861-.0932473-.10213348-.2179462-.03854505-.27797.06467727-.0591379.18357892-.0314516.26981531.0617957.08601856.0943548.10278674.2181678.03723839.2779701"/><path d="m6.08009917 20.677208c-.08057439.0569229-.21232439.0035438-.29376982-.1153964-.08057439-.1189402-.08057439-.2615798.00174213-.3187242.08166322-.0571445.2114533-.0057588.29398761.1122955.08035661.120712.08035661.2635732-.00195992.3218251"/><path d="m6.79046035 21.4214147c-.07208144.0808439-.22560826.0591378-.33797687-.0511642-.11498183-.1078657-.14699383-.2609154-.07469465-.3417593.07295247-.0810653.22735043-.0582519.34059008.0511642.11411074.1076443.14895374.2618014.07208144.3417593"/><path d="m7.770419 21.8535419c-.03179422.1047648-.17965909.1523851-.32861278.1078656-.14873596-.0458484-.24607852-.1685539-.21602648-.2744262.03092317-.1054293.17944135-.1550431.32948391-.1074227.14851818.045627.24607848.1674465.21515535.2739833"/><path d="m8.84663139 21.9337213c.00370209.110302-.12260369.2017774-.27896156.2035494-.15722892.0037653-.28440579-.0854952-.28614792-.1940254 0-.1114095.12347479-.2019989.2807037-.2046568.15635787-.0031009.28440578.0854952.28440578.1951328"/><path d="m9.84814917 21.7602945c.01872809.1076442-.08993843.2181678-.24520743.2474045-.15265578.0285722-.29398761-.0378749-.313369-.144633-.01894587-.1103021.09168056-.2208257.24411856-.2493979.15548679-.0274648.29464092.0372103.31445787.1466264"/></g></svg>