<?xml version="1.0" encoding="utf-8"?>
<!-- Generator: Adobe Illustrator 23.0.6, SVG Export Plug-In . SVG Version: 6.00 Build 0)  -->
<svg version="1.1" id="Ebene_1" xmlns="http://www.w3.org/2000/svg" xmlns:xlink="http://www.w3.org/1999/xlink" x="0px" y="0px"
	 width="38px" height="23px" viewBox="0 0 38 23" style="enable-background:new 0 0 38 23;" xml:space="preserve">
<title>m-nav</title>
<g id="Page-1">
	<g id="iPhone-11-Pro" transform="translate(-312.000000, -33.000000)">
		<g id="m-nav" transform="translate(313.000000, 34.000000)">
			<path d="M35.5,1.2h-35c-0.4,0-0.8-0.3-0.8-0.8s0.3-0.8,0.8-0.8h35c0.4,0,0.8,0.3,0.8,0.8S35.9,1.2,35.5,1.2z"/>
			<path d="M35.5,11.2h-35c-0.4,0-0.8-0.3-0.8-0.8s0.3-0.8,0.8-0.8h35c0.4,0,0.8,0.3,0.8,0.8S35.9,11.2,35.5,11.2z"/>
			<path d="M35.5,21.2h-35c-0.4,0-0.8-0.3-0.8-0.8s0.3-0.8,0.8-0.8h35c0.4,0,0.8,0.3,0.8,0.8S35.9,21.2,35.5,21.2z"/>
		</g>
	</g>
</g>
</svg>
